<?xml version="1.0" encoding="UTF-8" standalone="no"?>
<!DOCTYPE svg PUBLIC "-//W3C//DTD SVG 1.1//EN" "http://www.w3.org/Graphics/SVG/1.1/DTD/svg11.dtd">
<svg width="100%" height="100%" viewBox="0 0 601 601" version="1.1" xmlns="http://www.w3.org/2000/svg" xmlns:xlink="http://www.w3.org/1999/xlink" xml:space="preserve" xmlns:serif="http://www.serif.com/" style="fill-rule:evenodd;clip-rule:evenodd;">
    <g id="g1600" transform="matrix(1,0,0,1,0.5,0.500008)">
        <path id="path1602" d="M80.753,0C115.429,10.583 152.238,16.277 190.377,16.277C228.516,16.277 265.324,10.583 300,0C334.676,10.583 371.484,16.277 409.623,16.277C447.762,16.277 484.571,10.583 519.247,0C569.813,63.908 600,144.678 600,232.5C600,413.924 471.17,565.254 300,599.999C128.83,565.254 0,413.924 0,232.5C0,144.678 30.188,63.908 80.753,0Z" style="fill:white;fill-rule:nonzero;stroke:white;stroke-width:1px;"/>
    </g>
    <g id="g1606" transform="matrix(1.00877,0,0,1.01197,-2.13158,-3.67447)">
        <path id="path1608" d="M15,232.5C15,200.521 19.169,169.516 26.995,139.999L573.006,139.999C580.83,169.516 585,200.521 585,232.5C585,405.605 462.826,550.172 300,584.677C137.174,550.172 15,405.605 15,232.5Z" style="fill:rgb(0,63,135);fill-rule:nonzero;"/>
    </g>
    <g id="g1610" transform="matrix(1.01423,0,0,1.02886,-3.77008,-3.10643)">
        <path id="path1612" d="M31.324,124.999C43.579,85.778 62.363,49.44 86.403,17.26C119.504,26.393 154.371,31.272 190.377,31.272C228.438,31.272 265.225,25.821 300,15.655C334.775,25.821 371.563,31.272 409.623,31.272C445.629,31.272 480.496,26.393 513.598,17.26C537.637,49.44 556.421,85.778 568.676,124.999L31.324,124.999Z" style="fill:rgb(0,63,135);fill-rule:nonzero;"/>
    </g>
</svg>
